<svg width="47" height="46" viewBox="0 0 47 46" fill="none" xmlns="http://www.w3.org/2000/svg">
<path fill-rule="evenodd" clip-rule="evenodd" d="M23.4143 0C17.8538 0.00288501 12.4757 1.9723 8.24154 5.55608C4.0074 9.13987 1.19336 14.1043 0.302597 19.5618C-0.588163 25.0192 0.502435 30.6138 3.3794 35.3451C6.25637 40.0764 10.7321 43.6359 16.0063 45.3871C17.1698 45.6031 17.6081 44.8819 17.6081 44.2687C17.6081 43.6556 17.5848 41.8777 17.5771 39.934C11.0611 41.3417 9.68421 37.1844 9.68421 37.1844C8.62149 34.4848 7.08558 33.7752 7.08558 33.7752C4.96013 32.3329 7.24461 32.3599 7.24461 32.3599C9.59889 32.5257 10.8362 34.7625 10.8362 34.7625C12.9228 38.322 16.3165 37.2923 17.6508 36.6907C17.8602 35.1828 18.4691 34.157 19.1401 33.5747C13.9351 32.9885 8.46634 30.9908 8.46634 22.0669C8.43408 19.7525 9.29781 17.5144 10.8788 15.8155C10.6383 15.2293 9.83547 12.8614 11.1076 9.6451C11.1076 9.6451 13.0741 9.02035 17.5499 12.0323C21.389 10.9884 25.4396 10.9884 29.2787 12.0323C33.7507 9.02035 35.7132 9.6451 35.7132 9.6451C36.9893 12.8537 36.1864 15.2216 35.9459 15.8155C37.5319 17.5146 38.3975 19.7567 38.3623 22.0746C38.3623 31.0178 32.8819 32.9885 27.6691 33.5631C28.5069 34.2881 29.2554 35.7035 29.2554 37.8785C29.2554 40.9946 29.2283 43.5013 29.2283 44.2687C29.2283 44.8896 29.651 45.6146 30.8379 45.3871C36.1127 43.6357 40.5888 40.0755 43.4657 35.3434C46.3427 30.6113 47.4327 25.0159 46.5409 19.558C45.6491 14.1 42.8337 9.13551 38.5981 5.55234C34.3626 1.96917 28.9832 0.00105635 23.4221 0H23.4143Z" fill="white"/>
</svg>
