<svg width="26" height="22" viewBox="0 0 26 22" fill="none" xmlns="http://www.w3.org/2000/svg">
<path fill-rule="evenodd" clip-rule="evenodd" d="M1.74866 9.07494C8.57683 6.10002 13.13 4.13877 15.4082 3.19119C21.9129 0.485664 23.2645 0.0156845 24.1455 0.000165467C24.3393 -0.00324777 24.7725 0.0447718 25.0531 0.272484C25.2901 0.464761 25.3553 0.724498 25.3865 0.906797C25.4177 1.0891 25.4565 1.50438 25.4257 1.82887C25.0732 5.53253 23.5479 14.5203 22.772 18.6685C22.4436 20.4238 21.7972 21.0123 21.1713 21.0699C19.8111 21.195 18.7782 20.171 17.4608 19.3074C15.3993 17.9561 14.2347 17.1148 12.2336 15.7962C9.92109 14.2723 11.4202 13.4347 12.7381 12.0658C13.083 11.7076 19.0761 6.25648 19.1921 5.76197C19.2066 5.70013 19.2201 5.46959 19.0831 5.34786C18.9461 5.22614 18.744 5.26776 18.5981 5.30087C18.3914 5.34779 15.0981 7.52452 8.71835 11.831C7.78356 12.4729 6.93687 12.7857 6.17826 12.7693C5.34195 12.7512 3.73323 12.2964 2.53731 11.9077C1.07046 11.4309 -0.0953542 11.1788 0.00616234 10.369C0.0590384 9.94722 0.63987 9.51587 1.74866 9.07494Z" fill="white"/>
</svg>
