<svg width="47" height="47" viewBox="0 0 47 47" fill="none" xmlns="http://www.w3.org/2000/svg">
<path fill-rule="evenodd" clip-rule="evenodd" d="M46.8452 23.4226C46.8452 36.3586 36.3586 46.8452 23.4226 46.8452C10.4867 46.8452 0 36.3586 0 23.4226C0 10.4867 10.4867 0 23.4226 0C36.3586 0 46.8452 10.4867 46.8452 23.4226ZM24.262 17.2916C21.9838 18.2392 17.4306 20.2004 10.6024 23.1754C9.49364 23.6163 8.91281 24.0476 8.85993 24.4694C8.77057 25.1822 9.66322 25.4629 10.8788 25.8451C11.0441 25.8971 11.2154 25.951 11.3911 26.0081C12.587 26.3968 14.1957 26.8516 15.032 26.8697C15.7906 26.8861 16.6373 26.5733 17.5721 25.9314C23.9519 21.6249 27.2451 19.4482 27.4519 19.4013C27.5978 19.3682 27.7999 19.3265 27.9369 19.4483C28.0738 19.57 28.0604 19.8005 28.0458 19.8624C27.9574 20.2394 24.4534 23.497 22.6401 25.1828C22.0749 25.7083 21.6739 26.0811 21.5919 26.1663C21.4083 26.357 21.2211 26.5374 21.0413 26.7108C19.9302 27.7818 19.0971 28.585 21.0874 29.8966C22.0439 30.5269 22.8092 31.0481 23.5728 31.5681C24.4067 32.136 25.2384 32.7024 26.3146 33.4078C26.5887 33.5875 26.8506 33.7742 27.1056 33.956C28.076 34.6479 28.9479 35.2694 30.025 35.1703C30.6509 35.1127 31.2974 34.5242 31.6258 32.7689C32.4017 28.6208 33.9269 19.6329 34.2794 15.9293C34.3103 15.6048 34.2715 15.1895 34.2403 15.0072C34.2091 14.8249 34.1439 14.5652 33.9069 14.3729C33.6263 14.1452 33.193 14.0972 32.9993 14.1006C32.1183 14.1161 30.7667 14.5861 24.262 17.2916Z" fill="white"/>
</svg>
